<svg width="16" height="16" viewBox="0 0 16 16" fill="none" xmlns="http://www.w3.org/2000/svg">
<g id="icon-16/function/arrow-right" clip-path="url(#clip0_2450_24475)">
<path id="Vector" d="M15.3337 7.33317V8.6665H14.667V9.33317H14.0003V9.99984H13.3337V10.6665H12.667V11.3332H12.0003V11.9998H11.3337V12.6665H10.667V13.3332H10.0003V13.9998H9.33366V14.6665H8.66699V15.3332H8.00033V14.6665H7.33366V13.9998H6.66699V13.3332H7.33366V12.6665H8.00033V11.9998H8.66699V11.3332H9.33366V10.6665H10.0003V9.99984H10.667V9.33317H0.666992V6.6665H10.667V5.99984H10.0003V5.33317H9.33366V4.6665H8.66699V3.99984H8.00033V3.33317H7.33366V2.6665H6.66699V1.99984H7.33366V1.33317H8.00033V0.666504H8.66699V1.33317H9.33366V1.99984H10.0003V2.6665H10.667V3.33317H11.3337V3.99984H12.0003V4.6665H12.667V5.33317H13.3337V5.99984H14.0003V6.6665H14.667V7.33317H15.3337Z" fill="#F0E9CF" fill-opacity="0.48"/>
</g>
<defs>
<clipPath id="clip0_2450_24475">
<rect width="16" height="16" fill="white"/>
</clipPath>
</defs>
</svg>
