<svg xmlns="http://www.w3.org/2000/svg" width="16" height="16" viewBox="0 0 16 16" fill="none">
    <g clip-path="url(#clip0_3829_146)">
        <path d="M0.666341 8.66634L0.666342 7.33301L1.33301 7.33301L1.33301 6.66634L1.99967 6.66634L1.99967 5.99967L2.66634 5.99967L2.66634 5.33301L3.33301 5.33301L3.33301 4.66634L3.99967 4.66634L3.99967 3.99967L4.66634 3.99967L4.66634 3.33301L5.33301 3.33301L5.33301 2.66634L5.99967 2.66634L5.99968 1.99967L6.66634 1.99967L6.66634 1.33301L7.33301 1.33301L7.33301 0.66634L7.99968 0.66634L7.99968 1.33301L8.66634 1.33301L8.66634 1.99967L9.33301 1.99967L9.33301 2.66634L8.66634 2.66634L8.66634 3.33301L7.99968 3.33301L7.99968 3.99967L7.33301 3.99967L7.33301 4.66634L6.66634 4.66634L6.66634 5.33301L5.99967 5.33301L5.99967 5.99967L5.33301 5.99967L5.33301 6.66634L15.333 6.66634L15.333 9.33301L5.33301 9.33301L5.33301 9.99967L5.99967 9.99967L5.99967 10.6663L6.66634 10.6663L6.66634 11.333L7.33301 11.333L7.33301 11.9997L7.99967 11.9997L7.99967 12.6663L8.66634 12.6663L8.66634 13.333L9.33301 13.333L9.33301 13.9997L8.66634 13.9997L8.66634 14.6663L7.99967 14.6663L7.99967 15.333L7.33301 15.333L7.33301 14.6663L6.66634 14.6663L6.66634 13.9997L5.99967 13.9997L5.99967 13.333L5.33301 13.333L5.33301 12.6663L4.66634 12.6663L4.66634 11.9997L3.99967 11.9997L3.99967 11.333L3.33301 11.333L3.33301 10.6663L2.66634 10.6663L2.66634 9.99967L1.99967 9.99967L1.99967 9.33301L1.33301 9.33301L1.33301 8.66634L0.666341 8.66634Z" fill="#F0E9CF" fill-opacity="0.48"/>
    </g>
    <defs>
        <clipPath id="clip0_3829_146">
            <rect width="16" height="16" fill="white"/>
        </clipPath>
    </defs>
</svg>