<svg xmlns="http://www.w3.org/2000/svg" width="16" height="16" viewBox="0 0 16 16" fill="none">
    <path d="M9.8 8.6H10.4V9.2H11V9.8H11.6V10.4H12.2V11H12.8V11.6H13.4V12.2H14V12.8H13.4V13.4H12.8V14H12.2V13.4H11.6V12.8H11V12.2H10.4V11.6H9.8V11H9.2V10.4H8.6V9.8H7.4V10.4H6.8V11H6.2V11.6H5.6V12.2H5V12.8H4.4V13.4H3.8V14H3.2V13.4H2.6V12.8H2V12.2H2.6V11.6H3.2V11H3.8V10.4H4.4V9.8H5V9.2H5.6V8.6H6.2V7.4H5.6V6.8H5V6.2H4.4V5.6H3.8V5H3.2V4.4H2.6V3.8H2V3.2H2.6V2.6H3.2V2H3.8V2.6H4.4V3.2H5V3.8H5.6V4.4H6.2V5H6.8V5.6H7.4V6.2H8.6V5.6H9.2V5H9.8V4.4H10.4V3.8H11V3.2H11.6V2.6H12.2V2H12.8V2.6H13.4V3.2H14V3.8H13.4V4.4H12.8V5H12.2V5.6H11.6V6.2H11V6.8H10.4V7.4H9.8V8.6Z" fill="#F0E9CF" fill-opacity="0.48"/>
</svg>