<svg xmlns="http://www.w3.org/2000/svg" width="16" height="16" viewBox="0 0 16 16" fill="none">
    <path d="M13.4545 6.36364V5.27273H12.9091V4.18182H12.3636V3.63636H11.8182V3.09091L10.7273 3.09091V2.54545H9.63636V2L6.36364 2V2.54545L5.27273 2.54545V3.09091H4.18182V3.63636L3.63636 3.63636L3.63636 4.18182H3.09091V5.27273H2.54545L2.54545 6.36364H2L2 9.63636H2.54545V10.7273H3.09091L3.09091 11.8182H3.63636V12.3636H4.18182V12.9091H5.27273V13.4545H6.36364V14L9.63636 14V13.4545H10.7273V12.9091H11.8182V12.3636H12.3636V11.8182H12.9091V10.7273H13.4545V9.63636H14L14 6.36364H13.4545ZM7.45455 4.72727H8.54545V5.81818H7.45455L7.45455 4.72727ZM6.90909 9.63636H7.45455V6.90909H6.90909V6.36364H8.54545V9.63636H9.09091L9.09091 10.7273L6.90909 10.7273L6.90909 9.63636Z" fill="#F0E9CF" fill-opacity="0.48"/>
</svg>