<svg xmlns="http://www.w3.org/2000/svg" width="20" height="20" viewBox="0 0 20 20" fill="none">
    <path d="M18.3335 9.16659V6.66659H17.5002V4.99992H16.6668V4.16659H15.0002V3.33325H12.5002V4.16659H7.50016V3.33325H5.00016V4.16659H3.3335V4.99992H2.50016V6.66659H1.66683V9.16659H0.833496V14.9999H2.50016V15.8333H4.16683V16.6666H5.8335V14.9999H5.00016V14.1666H6.66683V14.9999H7.50016V15.8333H12.5002V14.9999H13.3335V14.1666H15.0002V14.9999H14.1668V16.6666H15.8335V15.8333H17.5002V14.9999H19.1668V9.16659H18.3335ZM7.50016 12.4999H5.8335V11.6666H5.00016V9.99992H5.8335V9.16659H7.50016V9.99992H8.3335V11.6666H7.50016V12.4999ZM15.0002 11.6666H14.1668V12.4999H12.5002V11.6666H11.6668V9.99992H12.5002V9.16659H14.1668V9.99992H15.0002V11.6666Z" fill="#F0E9CF" fill-opacity="0.48"/>
</svg>