<svg xmlns="http://www.w3.org/2000/svg" width="16" height="16" viewBox="0 0 16 16" fill="none">
    <path d="M3 9.15385L3.45455 9.15385L3.45455 8.69231L3.90909 8.69231L3.90909 8.23077L4.36364 8.23077L4.36364 7.76923L4.81818 7.76923L4.81818 7.30769L5.27273 7.30769L5.27273 6.84615L5.72727 6.84615L5.72727 6.38462L6.18182 6.38462L6.18182 5.92308L6.63636 5.92308L6.63636 5.46154L7.09091 5.46154L7.09091 5L8.90909 5L8.90909 5.46154L9.36364 5.46154L9.36364 5.92308L9.81818 5.92308L9.81818 6.38462L10.2727 6.38462L10.2727 6.84615L10.7273 6.84615L10.7273 7.30769L11.1818 7.30769L11.1818 7.76923L11.6364 7.76923L11.6364 8.23077L12.0909 8.23077L12.0909 8.69231L12.5455 8.69231L12.5455 9.15385L13 9.15385L13 11L3 11L3 9.15385Z" fill="#00FF97"/>
</svg>