<svg xmlns="http://www.w3.org/2000/svg" width="16" height="16" viewBox="0 0 16 16" fill="none">
    <path d="M13 6.84615L12.5455 6.84615L12.5455 7.30769L12.0909 7.30769L12.0909 7.76923L11.6364 7.76923L11.6364 8.23077L11.1818 8.23077L11.1818 8.69231L10.7273 8.69231L10.7273 9.15385L10.2727 9.15385L10.2727 9.61538L9.81818 9.61538L9.81818 10.0769L9.36364 10.0769L9.36364 10.5385L8.90909 10.5385L8.90909 11L7.09091 11L7.09091 10.5385L6.63636 10.5385L6.63636 10.0769L6.18182 10.0769L6.18182 9.61538L5.72727 9.61538L5.72727 9.15385L5.27273 9.15385L5.27273 8.69231L4.81818 8.69231L4.81818 8.23077L4.36364 8.23077L4.36364 7.76923L3.90909 7.76923L3.90909 7.30769L3.45454 7.30769L3.45454 6.84615L3 6.84615L3 5L13 5L13 6.84615Z" fill="#CA4F02"/>
</svg>