<svg width="32" height="32" viewBox="0 0 32 32" fill="none" xmlns="http://www.w3.org/2000/svg">
<path d="M8.66667 0H23.3333V2H28V4H30V8H32V23.3333H30V27.3333H28V29.3333H23.3333V32H8.66667V29.3334H4V27.3334H2V23.3334H0V8.00009H2V4.00008H4V2.00008H8.66667V0Z" fill="#F0E9CF"/>
<path fill-rule="evenodd" clip-rule="evenodd" d="M19.1999 15.3999H19.7999V11.8H19.1999V11.2H18.5999V10.6H17.9999V10H14.4V10.6H13.2V11.2H12.6V11.8H12V12.4H12.6V13H13.2V13.6H13.8V14.1999H14.4V13.6H15V13H15.6V12.4H16.7999V13H17.3999V14.1999H16.7999V14.7999H15.6V15.3999H15V15.9999H14.4V17.7999H17.3999V16.5999H17.9999V15.9999H19.1999V15.3999ZM17.4004 19.6H16.8004V19H15.0004V19.6H14.4004V21.4H15.0004V22H16.8004V21.4H17.4004V19.6Z" fill="#100D08"/>
</svg>
