<svg width="32" height="32" viewBox="0 0 32 32" fill="none" xmlns="http://www.w3.org/2000/svg">
<rect y="9" width="2" height="14" fill="#3B382F"/>
<rect x="2" y="6" width="2" height="20" fill="#3B382F"/>
<rect width="2" height="14" transform="matrix(-1 0 0 1 32 9)" fill="#3B382F"/>
<rect width="2" height="20" transform="matrix(-1 0 0 1 30 6)" fill="#3B382F"/>
<rect width="2" height="14" transform="matrix(-4.37114e-08 1 1 4.37114e-08 9 0)" fill="#3B382F"/>
<rect width="2" height="20" transform="matrix(-5.58643e-08 1 1 3.42022e-08 6 2)" fill="#3B382F"/>
<rect width="2" height="14" transform="matrix(1.39124e-08 -1 -1 -1.02213e-08 23 32)" fill="#3B382F"/>
<rect width="2" height="20" transform="matrix(1.60378e-08 -1 -1 -8.86674e-09 26 30)" fill="#3B382F"/>
<rect x="4" y="4" width="24" height="24" fill="#3B382F"/>
<path d="M12 16H11V20H12V21H16V20H18V22H17V23H11V22H10V21H9V15H10V14H12V16Z" fill="#F0E9CF" fill-opacity="0.48"/>
<path d="M18 16H17V17H16V18H14V16H15V15H16V14H18V16Z" fill="#F0E9CF" fill-opacity="0.48"/>
<path d="M22 10V11H23V17H22V18H20V16H21V12H20V11H16V12H14V10H15V9H21V10H22Z" fill="#F0E9CF" fill-opacity="0.48"/>
</svg>
