<svg width="32" height="32" viewBox="0 0 32 32" fill="none" xmlns="http://www.w3.org/2000/svg">
<rect y="9" width="2" height="14" fill="#3B382F"/>
<rect x="2" y="6" width="2" height="20" fill="#3B382F"/>
<rect width="2" height="14" transform="matrix(-1 0 0 1 32 9)" fill="#3B382F"/>
<rect width="2" height="20" transform="matrix(-1 0 0 1 30 6)" fill="#3B382F"/>
<rect width="2" height="14" transform="matrix(-4.37114e-08 1 1 4.37114e-08 9 0)" fill="#3B382F"/>
<rect width="2" height="20" transform="matrix(-5.58643e-08 1 1 3.42022e-08 6 2)" fill="#3B382F"/>
<rect width="2" height="14" transform="matrix(1.39124e-08 -1 -1 -1.02213e-08 23 32)" fill="#3B382F"/>
<rect width="2" height="20" transform="matrix(1.60378e-08 -1 -1 -8.86674e-09 26 30)" fill="#3B382F"/>
<rect x="4" y="4" width="24" height="24" fill="#3B382F"/>
<path d="M11 20H12V21H21V22H20V23H10V22H9V12H10V11H11V20Z" fill="#F0E9CF" fill-opacity="0.48"/>
<path d="M22 10H23V19H22V20H13V19H12V10H13V9H22V10Z" fill="#F0E9CF" fill-opacity="0.48"/>
</svg>
