<svg xmlns="http://www.w3.org/2000/svg" width="24" height="24" viewBox="0 0 24 24" fill="none">
    <path d="M21 12.9001V11.1001H17.4V7.5001H16.5V6.6001H7.5V7.5001H6.6V11.1001H3V12.9001H21Z" fill="#F0E9CF"/>
    <path d="M6.6 13.8001H17.4V16.5001H16.5V17.4001H7.5V16.5001H6.6V13.8001Z" fill="#F0E9CF"/>
    <path d="M3.9 3H8.4V3.9V4.8H4.8V8.4H3.9H3V3.9H3.9V3Z" fill="#F0E9CF"/>
    <path d="M3.9 21H8.4V20.1V19.2H4.8V15.6H3.9H3V20.1H3.9V21Z" fill="#F0E9CF"/>
    <path d="M20.1 3H15.6V3.9V4.8H19.2V8.4H20.1H21V3.9H20.1V3Z" fill="#F0E9CF"/>
    <path d="M20.1 21H15.6V20.1V19.2H19.2V15.6H20.1H21V20.1H20.1V21Z" fill="#F0E9CF"/>
</svg>