<svg xmlns="http://www.w3.org/2000/svg" width="24" height="24" viewBox="0 0 24 24" fill="none">
    <path d="M9.33333 4H14V4.66667H16V5.33333H16.6667V6H18V5.33333H18.6667V4.66667H20V10.6667H14V9.33333H14.6667V8.66667H15.3333V7.33333H14V6.66667H10V7.33333H8.66667V8H8V8.66667H7.33333V10H6.66667V10.6667H4V10H4.66667V8H5.33333V7.33333H6V6.66667H6.66667V6H7.33333V5.33333H8V4.66667H9.33333V4Z" fill="#F0E9CF"/>
    <path d="M17.3333 14V13.3333H20V14H19.3333V16H18.6667V16.6667H18V17.3333H17.3333V18H16.6667V18.6667H16V19.3333H14.6667V20H10V19.3333H8V18.6667H7.33333V18H6V18.6667H5.33333V19.3333H4V13.3333H10V14.6667H9.33333V15.3333H8.66667V16.6667H10V17.3333H14V16.6667H15.3333V16H16V15.3333H16.6667V14H17.3333Z" fill="#F0E9CF"/>
</svg>