<svg xmlns="http://www.w3.org/2000/svg" width="16" height="16" viewBox="0 0 16 16" fill="none">
    <path d="M6.5 13L6.5 13.5L4.5 13.5L4.5 11.5L5 11.5L5 11L5.5 11L5.5 10.5L6 10.5L6 10L6.5 10L6.5 9.5L7 9.5L7 9L7.5 9L7.5 8.5L8 8.5L8 7.5L7.5 7.5L7.5 7L7 7L7 6.5L6.5 6.5L6.5 6L6 6L6 5.5L5.5 5.5L5.5 5L5 5L5 4.5L4.5 4.5L4.5 2.5L6.5 2.5L6.5 3L7 3L7 3.5L7.5 3.5L7.5 4L8 4L8 4.5L8.5 4.5L8.5 5L9 5L9 5.5L9.5 5.5L9.5 6L10 6L10 6.5L10.5 6.5L10.5 7L11 7L11 9L10.5 9L10.5 9.5L10 9.5L10 10L9.5 10L9.5 10.5L9 10.5L9 11L8.5 11L8.5 11.5L8 11.5L8 12L7.5 12L7.5 12.5L7 12.5L7 13L6.5 13Z" fill="#F0E9CF" fill-opacity="0.12"/>
</svg>