<svg xmlns="http://www.w3.org/2000/svg" width="16" height="16" viewBox="0 0 16 16" fill="none">
    <path d="M13.4545 12.3636V11.8182H12.9091V11.2727H12.3636V10.7273H11.8182V10.1818H10.7273V9.63636H11.2727V8.54545H11.8182V5.27273H11.2727V4.18182H10.7273V3.63636H10.1818V3.09091H9.63636V2.54545H8.54545V2H5.27273V2.54545H4.18182V3.09091H3.63636V3.63636H3.09091V4.18182H2.54545V5.27273H2V8.54545H2.54545V9.63636H3.09091V10.1818H3.63636V10.7273H4.18182V11.2727H5.27273V11.8182H8.54545V11.2727H9.63636V10.7273H10.1818V11.8182H10.7273V12.3636H11.2727V12.9091H11.8182V13.4545H12.3636V14H13.4545V13.4545H14V12.3636H13.4545ZM8 9.63636V10.1818H5.81818V9.63636H4.72727V9.09091H4.18182V8H3.63636V5.81818H4.18182V4.72727H4.72727V4.18182H5.81818V3.63636H8V4.18182H9.09091V4.72727H9.63636V5.81818H10.1818V8H9.63636V9.09091H9.09091V9.63636H8Z" fill="#F0E9CF" fill-opacity="0.48"/>
</svg>