<svg width="16" height="16" viewBox="0 0 16 16" fill="none" xmlns="http://www.w3.org/2000/svg">
<path d="M12.9091 6.90909V6.36364H12.3636V5.27273H12.9091V4.18182H12.3636V3.63636H11.8182V3.09091H10.7273V3.63636H9.63636V3.09091H9.09091V2H6.90909V3.09091H6.36364V3.63636H5.27273V3.09091H4.18182V3.63636H3.63636V4.18182H3.09091V5.27273H3.63636V6.36364H3.09091V6.90909H2V9.09091H3.09091V9.63636H3.63636V10.7273H3.09091V11.8182H3.63636V12.3636H4.18182V12.9091H5.27273V12.3636H6.36364V12.9091H6.90909V14H9.09091V12.9091H9.63636V12.3636H10.7273V12.9091H11.8182V12.3636H12.3636V11.8182H12.9091V10.7273H12.3636V9.63636H12.9091V9.09091H14V6.90909H12.9091ZM6.90909 6.90909V6.36364H9.09091V6.90909H9.63636V9.09091H9.09091V9.63636H6.90909V9.09091H6.36364V6.90909H6.90909Z" fill="#F0E9CF" fill-opacity="0.48"/>
</svg>
