<svg xmlns="http://www.w3.org/2000/svg" width="24" height="24" viewBox="0 0 24 24" fill="none">
    <path fill-rule="evenodd" clip-rule="evenodd" d="M14.5714 3H9.42857V4.28571H6.85714V5.57143H5.57143V6.85714H4.28571V9.42857H3L3 14.5714H4.28571V17.1429L5.57143 17.1429V18.4286H6.85714V19.7143L9.42857 19.7143V21H14.5714V19.7143L17.1429 19.7143L17.1429 18.4286H18.4286V17.1429L19.7143 17.1429L19.7143 14.5714H21V9.42857H19.7143L19.7143 6.85714H18.4286V5.57143H17.1429L17.1429 4.28571H14.5714V3ZM16.7143 7.71429H15.4286V9H14.1429V10.2857H12.8571V11.5714H11.5714V12.8571H10.2857V11.5714H9V10.2857H7.71429V11.5714H6.42857V12.8571H7.71429V14.1429H9V15.4286H10.2857V16.7143H11.5714V15.4286H12.8571V14.1429H14.1429V12.8571H15.4286V11.5714H16.7143V10.2857H18V9H16.7143V7.71429Z" fill="#0C9E63"/>
</svg>