<svg width="40" height="40" viewBox="0 0 40 40" fill="none" xmlns="http://www.w3.org/2000/svg">
<rect y="10" width="2" height="20" fill="#3B382F"/>
<rect x="2" y="6" width="2" height="28" fill="#3B382F"/>
<rect x="4" y="6" width="2" height="28" fill="#3B382F"/>
<rect width="2" height="20" transform="matrix(-1 0 0 1 40 10)" fill="#3B382F"/>
<rect width="2" height="28" transform="matrix(-1 0 0 1 38 6)" fill="#3B382F"/>
<rect width="2" height="28" transform="matrix(-1 0 0 1 36 6)" fill="#3B382F"/>
<rect width="2" height="16" transform="matrix(-4.37114e-08 1 1 4.37114e-08 12 0)" fill="#3B382F"/>
<rect width="2" height="28" transform="matrix(-5.1604e-08 1 1 3.70259e-08 6 2)" fill="#3B382F"/>
<rect width="2" height="28" transform="matrix(-5.1604e-08 1 1 3.70259e-08 6 4)" fill="#3B382F"/>
<rect width="2" height="16" transform="matrix(1.39124e-08 -1 -1 -1.02213e-08 28 40)" fill="#3B382F"/>
<rect width="2" height="28" transform="matrix(1.60378e-08 -1 -1 -8.86674e-09 34 38)" fill="#3B382F"/>
<rect width="2" height="28" transform="matrix(1.60378e-08 -1 -1 -8.86674e-09 34 36)" fill="#3B382F"/>
<rect x="6" y="6" width="28" height="28" fill="#3B382F"/>
<path d="M16.4 27H14.6V16.5H12.8V14.75H14.6V13H16.4V14.75H18.2V16.5H16.4V27ZM18.2 16.5V18.25H20V16.5H18.2ZM12.8 16.5V18.25H11V16.5H12.8ZM25.4 13H23.6V23.5H21.8V21.75H20V23.5H21.8V25.25H23.6V27H25.4V25.25H27.2V23.5H29V21.75H27.2V23.5H25.4V13Z" fill="#F0E9CF" fill-opacity="0.48"/>
</svg>
