<svg xmlns="http://www.w3.org/2000/svg" width="24" height="24" viewBox="0 0 24 24" fill="none">
    <path d="M20.1 3H22.8V7.5H21.9V12H21V15.6H20.1V19.2H19.2V21H17.4V20.1H15.6V19.2H14.7V18.3H13.8V17.4H12V18.3H11.1V19.2H10.2V20.1H9.3V14.7H10.2V13.8H11.1V12.9H12V12H12.9V11.1H13.8V10.2H14.7V9.3H16.5V8.4H17.4V7.5H18.3V6.6H17.4V7.5H15.6V8.4H13.8V9.3H12.9V10.2H11.1V11.1H10.2V12H8.4V12.9H7.5V13.8H5.7V12.9H3V12H1.2V10.2H3.9V9.3H5.7V8.4H7.5V7.5H10.2V6.6H12V5.7H14.7V4.8H17.4V3.9H20.1V3Z" fill="#F0E9CF"/>
</svg>