<svg xmlns="http://www.w3.org/2000/svg" width="16" height="16" viewBox="0 0 16 16" fill="none">
    <path d="M13.3998 2H15.1998V5H14.5998V8H13.9998V10.4H13.3998V12.8H12.7998V14H11.5998V13.4H10.3998V12.8H9.79981V12.2H9.19981V11.6H7.9998V12.2H7.3998V12.8H6.7998V13.4H6.1998V9.8H6.7998V9.2H7.3998V8.6H7.9998V8H8.5998V7.4H9.19981V6.8H9.79981V6.2H10.9998V5.6H11.5998V5H12.1998V4.4H11.5998V5H10.3998V5.6H9.19981V6.2H8.5998V6.8H7.3998V7.4H6.7998V8H5.5998V8.6H4.9998V9.2H3.7998V8.6H1.9998V8H0.799805V6.8H2.5998V6.2H3.7998V5.6H4.9998V5H6.7998V4.4H7.9998V3.8H9.79981V3.2H11.5998V2.6H13.3998V2Z" fill="#F0E9CF" fill-opacity="0.48"/>
</svg>