<svg xmlns="http://www.w3.org/2000/svg" width="20" height="20" viewBox="0 0 20 20" fill="none">
    <path d="M19.1668 6.66667H18.3335V10H17.5002V13.3333H16.6668V15.8333H15.8335V17.5H15.0002V16.6667H13.3335V15.8333H12.5002V15H11.6668V14.1667H10.0002V15H9.16683V15.8333H8.3335V16.6667H7.50016V12.5H8.3335V11.6667H9.16683V10.8333H10.0002V10H10.8335V9.16667H11.6668V8.33333H12.5002V7.5H14.1668V6.66667H15.0002V5.83333H14.1668H13.3335V6.66667H11.6668V7.5H10.8335V8.33333H9.16683V9.16667H8.3335V10H6.66683V10.8333H5.8335V11.6667H5.00016V10.8333H2.50016V10H0.833496V8.33333H3.3335V7.5H5.00016V6.66667H5.8335H8.3335V5.83333H10.0002V5H12.5002V4.16667H15.0002V3.33333H16.6668V2.5H19.1668V6.66667Z" fill="#F0E9CF" fill-opacity="0.48"/>
</svg>