<svg width="24" height="24" viewBox="0 0 24 24" fill="none" xmlns="http://www.w3.org/2000/svg">
<rect y="6" width="1.5" height="12" fill="#493B0C"/>
<rect x="1.5" y="3" width="3" height="18" fill="#493B0C"/>
<rect x="4.5" y="1.5" width="3" height="21" fill="#493B0C"/>
<rect width="9" height="24" transform="translate(7.5)" fill="#493B0C"/>
<rect width="1.5" height="12" transform="matrix(-1 0 0 1 24 6)" fill="#493B0C"/>
<rect width="3" height="18" transform="matrix(-1 0 0 1 22.5 3)" fill="#493B0C"/>
<rect width="3" height="21" transform="matrix(-1 0 0 1 19.5 1.5)" fill="#493B0C"/>
<rect x="16.5" y="1.5" width="3" height="1.5" fill="#D9D9D9"/>
<rect x="7.5" width="9" height="1.5" fill="#D8C062"/>
<rect x="4.5" y="1.5" width="3" height="1.5" fill="#D8C062"/>
<rect x="4.5" y="21" width="3" height="1.5" fill="#D8C062"/>
<rect x="1.5" y="3" width="3" height="3" fill="#D8C062"/>
<rect x="1.5" y="18" width="3" height="3" fill="#D8C062"/>
<rect y="6" width="1.5" height="12" fill="#D8C062"/>
<rect x="16.5" y="24" width="9" height="1.5" transform="rotate(-180 16.5 24)" fill="#D2A50D"/>
<rect x="19.5" y="22.5" width="3" height="1.5" transform="rotate(-180 19.5 22.5)" fill="#D2A50D"/>
<rect x="19.5" y="3" width="3" height="1.5" transform="rotate(-180 19.5 3)" fill="#D2A50D"/>
<rect x="22.5" y="21" width="3" height="3" transform="rotate(-180 22.5 21)" fill="#D2A50D"/>
<rect x="22.5" y="6" width="3" height="3" transform="rotate(-180 22.5 6)" fill="#D2A50D"/>
<rect x="24" y="18" width="1.5" height="12" transform="rotate(-180 24 18)" fill="#D2A50D"/>
<rect x="7.5" y="1.5" width="9" height="1.5" fill="#6B5409"/>
<rect x="4.5" y="3" width="15" height="1.5" fill="#6B5409"/>
<rect x="4.5" y="4.5" width="15" height="1.5" fill="#6B5409"/>
<rect x="1.5" y="6" width="15" height="1.5" fill="#6B5409"/>
<rect x="18" y="4.5" width="1.5" height="1.5" fill="#493B0C"/>
<rect x="1.5" y="7.5" width="13.5" height="1.5" fill="#6B5409"/>
<rect x="1.5" y="9" width="12" height="1.5" fill="#6B5409"/>
<rect x="1.5" y="10.5" width="10.5" height="1.5" fill="#6B5409"/>
<rect x="1.5" y="12" width="9" height="1.5" fill="#6B5409"/>
<rect x="1.5" y="13.5" width="7.5" height="1.5" fill="#6B5409"/>
<rect x="1.5" y="15" width="6" height="1.5" fill="#6B5409"/>
<rect x="1.5" y="16.5" width="4.5" height="1.5" fill="#6B5409"/>
<path d="M9.3 6C9.24477 6 9.2 6.04477 9.2 6.1V6.3C9.2 6.35523 9.15523 6.4 9.1 6.4H8.1C8.04477 6.4 8 6.44477 8 6.5V7.5C8 7.55523 7.95523 7.6 7.9 7.6H6.9C6.84477 7.6 6.8 7.64477 6.8 7.7V9.9C6.8 9.95523 6.84477 10 6.9 10H7.9C7.95523 10 8 9.95523 8 9.9V8.9C8 8.84477 8.04477 8.8 8.1 8.8H9.5C9.55523 8.8 9.6 8.75523 9.6 8.7V7.7C9.6 7.64477 9.64477 7.6 9.7 7.6H10.7C10.7552 7.6 10.8 7.64477 10.8 7.7V8.7C10.8 8.75523 10.8448 8.8 10.9 8.8H16.7C16.7552 8.8 16.8 8.75523 16.8 8.7V7.7C16.8 7.64477 16.7552 7.6 16.7 7.6H15.7C15.6448 7.6 15.6 7.55523 15.6 7.5V6.5C15.6 6.44477 15.5552 6.4 15.5 6.4H14.5C14.4448 6.4 14.4 6.35523 14.4 6.3V6.1C14.4 6.04477 14.3552 6 14.3 6H9.3Z" fill="#F0E9CF"/>
<path d="M8.9 9.6C8.84477 9.6 8.8 9.64477 8.8 9.7V10.3C8.8 10.3552 8.75523 10.4 8.7 10.4H8.1C8.04477 10.4 8 10.4448 8 10.5V10.7C8 10.7552 7.95523 10.8 7.9 10.8H6.1C6.04477 10.8 6 10.8448 6 10.9V12.3C6 12.3552 6.04477 12.4 6.1 12.4H7.9C7.95523 12.4 8 12.3552 8 12.3V11.7C8 11.6448 8.04477 11.6 8.1 11.6H9.1C9.15523 11.6 9.2 11.5552 9.2 11.5V10.9C9.2 10.8448 9.24477 10.8 9.3 10.8H17.9C17.9552 10.8 18 10.7552 18 10.7V9.7C18 9.64477 17.9552 9.6 17.9 9.6H8.9Z" fill="#F0E9CF"/>
<path fill-rule="evenodd" clip-rule="evenodd" d="M8.7 13.2C8.75523 13.2 8.8 13.1552 8.8 13.1V12.9C8.8 12.8448 8.84477 12.8 8.9 12.8H9.9C9.95523 12.8 10 12.7552 10 12.7V11.7C10 11.6448 10.0448 11.6 10.1 11.6H13.1C13.1552 11.6 13.2 11.6448 13.2 11.7V13.5C13.2 13.5552 13.2448 13.6 13.3 13.6H14.3C14.3552 13.6 14.4 13.5552 14.4 13.5V11.7C14.4 11.6448 14.4448 11.6 14.5 11.6H17.1C17.1552 11.6 17.2 11.6448 17.2 11.7V13.5C17.2 13.5552 17.2448 13.6 17.3 13.6H17.9C17.9552 13.6 18 13.6448 18 13.7V16.3C18 16.3552 17.9552 16.4 17.9 16.4H17.3C17.2448 16.4 17.2 16.4448 17.2 16.5V17.1C17.2 17.1552 17.1552 17.2 17.1 17.2H15.7C15.6448 17.2 15.6 17.2448 15.6 17.3V17.9C15.6 17.9552 15.5552 18 15.5 18H10.9C10.8448 18 10.8 17.9552 10.8 17.9V17.3C10.8 17.2448 10.7552 17.2 10.7 17.2H8.9C8.84477 17.2 8.8 17.1552 8.8 17.1V16.5C8.8 16.4448 8.75523 16.4 8.7 16.4H8.1C8.04477 16.4 8 16.3552 8 16.3V14.9C8 14.8448 7.95523 14.8 7.9 14.8H6.5C6.44477 14.8 6.4 14.7552 6.4 14.7V13.3C6.4 13.2448 6.44477 13.2 6.5 13.2H8.7ZM9.6 15.1C9.6 15.1552 9.64477 15.2 9.7 15.2H10.3C10.3552 15.2 10.4 15.2448 10.4 15.3V15.9C10.4 15.9552 10.4448 16 10.5 16H16.3C16.3552 16 16.4 15.9552 16.4 15.9V15.7C16.4 15.6448 16.4448 15.6 16.5 15.6H16.7C16.7552 15.6 16.8 15.5552 16.8 15.5V14.9C16.8 14.8448 16.7552 14.8 16.7 14.8H16.1C16.0448 14.8 16 14.8448 16 14.9V15.1C16 15.1552 15.9552 15.2 15.9 15.2H10.9C10.8448 15.2 10.8 15.1552 10.8 15.1V14.5C10.8 14.4448 10.7552 14.4 10.7 14.4H9.7C9.64477 14.4 9.6 14.4448 9.6 14.5V15.1ZM12.4 12.5C12.4 12.4448 12.3552 12.4 12.3 12.4H11.3C11.2448 12.4 11.2 12.4448 11.2 12.5V13.5C11.2 13.5552 11.2448 13.6 11.3 13.6H12.3C12.3552 13.6 12.4 13.5552 12.4 13.5V12.5ZM15.3 13.6C15.2448 13.6 15.2 13.5552 15.2 13.5V12.5C15.2 12.4448 15.2448 12.4 15.3 12.4H16.3C16.3552 12.4 16.4 12.4448 16.4 12.5V13.5C16.4 13.5552 16.3552 13.6 16.3 13.6H15.3Z" fill="#F0E9CF"/>
</svg>
