<svg width="40" height="40" viewBox="0 0 40 40" fill="none" xmlns="http://www.w3.org/2000/svg">
<rect y="10" width="2.5" height="20" fill="#493B0C"/>
<rect x="2.5" y="5" width="5" height="30" fill="#493B0C"/>
<rect x="7.5" y="2.5" width="5" height="35" fill="#493B0C"/>
<rect width="15" height="40" transform="translate(12.5)" fill="#493B0C"/>
<rect width="2.5" height="20" transform="matrix(-1 0 0 1 40 10)" fill="#493B0C"/>
<rect width="5" height="30" transform="matrix(-1 0 0 1 37.5 5)" fill="#493B0C"/>
<rect width="5" height="35" transform="matrix(-1 0 0 1 32.5 2.5)" fill="#493B0C"/>
<rect x="27.5" y="2.5" width="5" height="2.5" fill="#D9D9D9"/>
<rect x="12.5" width="15" height="2.5" fill="#D8C062"/>
<rect x="7.5" y="2.5" width="5" height="2.5" fill="#D8C062"/>
<rect x="7.5" y="35" width="5" height="2.5" fill="#D8C062"/>
<rect x="2.5" y="5" width="5" height="5" fill="#D8C062"/>
<rect x="2.5" y="30" width="5" height="5" fill="#D8C062"/>
<rect y="10" width="2.5" height="20" fill="#D8C062"/>
<rect x="27.5" y="40" width="15" height="2.5" transform="rotate(-180 27.5 40)" fill="#D2A50D"/>
<rect x="32.5" y="37.5" width="5" height="2.5" transform="rotate(-180 32.5 37.5)" fill="#D2A50D"/>
<rect x="32.5" y="5" width="5" height="2.5" transform="rotate(-180 32.5 5)" fill="#D2A50D"/>
<rect x="37.5" y="35" width="5" height="5" transform="rotate(-180 37.5 35)" fill="#D2A50D"/>
<rect x="37.5" y="10" width="5" height="5" transform="rotate(-180 37.5 10)" fill="#D2A50D"/>
<rect x="40" y="30" width="2.5" height="20" transform="rotate(-180 40 30)" fill="#D2A50D"/>
<rect x="12.5" y="2.5" width="15" height="2.5" fill="#6B5409"/>
<rect x="7.5" y="5" width="25" height="2.5" fill="#6B5409"/>
<rect x="7.5" y="7.5" width="25" height="2.5" fill="#6B5409"/>
<rect x="2.5" y="10" width="25" height="2.5" fill="#6B5409"/>
<rect x="30" y="7.5" width="2.5" height="2.5" fill="#493B0C"/>
<rect x="2.5" y="12.5" width="22.5" height="2.5" fill="#6B5409"/>
<rect x="2.5" y="15" width="20" height="2.5" fill="#6B5409"/>
<rect x="2.5" y="17.5" width="17.5" height="2.5" fill="#6B5409"/>
<rect x="2.5" y="20" width="15" height="2.5" fill="#6B5409"/>
<rect x="2.5" y="22.5" width="12.5" height="2.5" fill="#6B5409"/>
<rect x="2.5" y="25" width="10" height="2.5" fill="#6B5409"/>
<rect x="2.5" y="27.5" width="7.5" height="2.5" fill="#6B5409"/>
<path d="M15.5 10C15.408 10 15.3333 10.0746 15.3333 10.1667V10.5C15.3333 10.592 15.2587 10.6667 15.1667 10.6667H13.5C13.408 10.6667 13.3333 10.7413 13.3333 10.8333V12.5C13.3333 12.592 13.2587 12.6667 13.1667 12.6667H11.5C11.408 12.6667 11.3333 12.7413 11.3333 12.8333V16.5C11.3333 16.592 11.408 16.6667 11.5 16.6667H13.1667C13.2587 16.6667 13.3333 16.592 13.3333 16.5V14.8333C13.3333 14.7413 13.408 14.6667 13.5 14.6667H15.8333C15.9254 14.6667 16 14.592 16 14.5V12.8333C16 12.7413 16.0746 12.6667 16.1667 12.6667H17.8333C17.9254 12.6667 18 12.7413 18 12.8333V14.5C18 14.592 18.0746 14.6667 18.1667 14.6667H27.8333C27.9254 14.6667 28 14.592 28 14.5V12.8333C28 12.7413 27.9254 12.6667 27.8333 12.6667H26.1667C26.0746 12.6667 26 12.592 26 12.5V10.8333C26 10.7413 25.9254 10.6667 25.8333 10.6667H24.1667C24.0746 10.6667 24 10.592 24 10.5V10.1667C24 10.0746 23.9254 10 23.8333 10H15.5Z" fill="#F0E9CF"/>
<path d="M14.8333 16C14.7413 16 14.6667 16.0746 14.6667 16.1667V17.1667C14.6667 17.2587 14.592 17.3333 14.5 17.3333H13.5C13.408 17.3333 13.3333 17.408 13.3333 17.5V17.8333C13.3333 17.9254 13.2587 18 13.1667 18H10.1667C10.0746 18 10 18.0746 10 18.1667V20.5C10 20.592 10.0746 20.6667 10.1667 20.6667H13.1667C13.2587 20.6667 13.3333 20.592 13.3333 20.5V19.5C13.3333 19.408 13.408 19.3333 13.5 19.3333H15.1667C15.2587 19.3333 15.3333 19.2587 15.3333 19.1667V18.1667C15.3333 18.0746 15.408 18 15.5 18H29.8333C29.9254 18 30 17.9254 30 17.8333V16.1667C30 16.0746 29.9254 16 29.8333 16H14.8333Z" fill="#F0E9CF"/>
<path fill-rule="evenodd" clip-rule="evenodd" d="M14.5 22C14.592 22 14.6667 21.9254 14.6667 21.8333V21.5C14.6667 21.408 14.7413 21.3333 14.8333 21.3333H16.5C16.592 21.3333 16.6667 21.2587 16.6667 21.1667V19.5C16.6667 19.408 16.7413 19.3333 16.8333 19.3333H21.8333C21.9254 19.3333 22 19.408 22 19.5V22.5C22 22.592 22.0746 22.6667 22.1667 22.6667H23.8333C23.9254 22.6667 24 22.592 24 22.5V19.5C24 19.408 24.0746 19.3333 24.1667 19.3333H28.5C28.592 19.3333 28.6667 19.408 28.6667 19.5V22.5C28.6667 22.592 28.7413 22.6667 28.8333 22.6667H29.8333C29.9254 22.6667 30 22.7413 30 22.8333V27.1667C30 27.2587 29.9254 27.3333 29.8333 27.3333H28.8333C28.7413 27.3333 28.6667 27.408 28.6667 27.5V28.5C28.6667 28.592 28.592 28.6667 28.5 28.6667H26.1667C26.0746 28.6667 26 28.7413 26 28.8333V29.8333C26 29.9254 25.9254 30 25.8333 30H18.1667C18.0746 30 18 29.9254 18 29.8333V28.8333C18 28.7413 17.9254 28.6667 17.8333 28.6667H14.8333C14.7413 28.6667 14.6667 28.592 14.6667 28.5V27.5C14.6667 27.408 14.592 27.3333 14.5 27.3333H13.5C13.408 27.3333 13.3333 27.2587 13.3333 27.1667V24.8333C13.3333 24.7413 13.2587 24.6667 13.1667 24.6667H10.8333C10.7413 24.6667 10.6667 24.592 10.6667 24.5V22.1667C10.6667 22.0746 10.7413 22 10.8333 22H14.5ZM16 25.1667C16 25.2587 16.0746 25.3333 16.1667 25.3333H17.1667C17.2587 25.3333 17.3333 25.408 17.3333 25.5V26.5C17.3333 26.592 17.408 26.6667 17.5 26.6667H27.1667C27.2587 26.6667 27.3333 26.592 27.3333 26.5V26.1667C27.3333 26.0746 27.408 26 27.5 26H27.8333C27.9254 26 28 25.9254 28 25.8333V24.8333C28 24.7413 27.9254 24.6667 27.8333 24.6667H26.8333C26.7413 24.6667 26.6667 24.7413 26.6667 24.8333V25.1667C26.6667 25.2587 26.592 25.3333 26.5 25.3333H18.1667C18.0746 25.3333 18 25.2587 18 25.1667V24.1667C18 24.0746 17.9254 24 17.8333 24H16.1667C16.0746 24 16 24.0746 16 24.1667V25.1667ZM20.6667 20.8333C20.6667 20.7413 20.592 20.6667 20.5 20.6667H18.8333C18.7413 20.6667 18.6667 20.7413 18.6667 20.8333V22.5C18.6667 22.592 18.7413 22.6667 18.8333 22.6667H20.5C20.592 22.6667 20.6667 22.592 20.6667 22.5V20.8333ZM25.5 22.6667C25.408 22.6667 25.3333 22.592 25.3333 22.5V20.8333C25.3333 20.7413 25.408 20.6667 25.5 20.6667H27.1667C27.2587 20.6667 27.3333 20.7413 27.3333 20.8333V22.5C27.3333 22.592 27.2587 22.6667 27.1667 22.6667H25.5Z" fill="#F0E9CF"/>
</svg>
