<svg xmlns="http://www.w3.org/2000/svg" width="16" height="16" viewBox="0 0 16 16" fill="none">
    <path d="M13.4545 6.36364V5.27273H12.9091V4.18182H12.3636V3.63636H11.8182V3.09091H10.7273V2.54545H9.63636V2H6.36364V2.54545H5.27273V3.09091H4.18182V3.63636H3.63636V4.18182H3.09091V5.27273H2.54545V6.36364H2V10.1818H2.54545V10.7273H3.09091V11.8182H3.63636V12.3636H4.18182V12.9091H5.27273V13.4545H6.36364V14H9.63636V13.4545H10.7273V12.9091H11.8182V12.3636H12.3636V11.8182H12.9091V10.7273H13.4545V9.63636H14V6.36364H13.4545ZM12.9091 6.90909V9.09091H11.2727V6.90909H12.9091ZM10.1818 3.63636H10.7273V4.18182H11.8182V5.27273H12.3636V5.81818H10.7273V4.18182H10.1818V3.63636ZM9.09091 11.2727V12.3636H8.54545V12.9091H7.45455V12.3636H6.90909V11.2727H6.36364V10.1818H9.63636V11.2727H9.09091ZM10.1818 6.90909V9.09091H5.81818V6.90909H10.1818ZM6.36364 4.72727H6.90909V3.63636H7.45455V3.09091H8.54545V3.63636H9.09091V4.72727H9.63636V5.81818H6.36364V4.72727ZM3.63636 5.27273H4.18182V4.18182H5.27273V3.63636H5.81818V4.18182H5.27273V5.81818H3.63636V5.27273ZM3.09091 9.09091V6.90909H4.72727V9.09091H3.09091ZM4.18182 11.8182V10.7273H3.63636V10.1818H5.27273V11.8182H5.81818V12.3636H5.27273V11.8182H4.18182ZM11.8182 10.7273V11.8182H10.7273V12.3636H10.1818V11.8182H10.7273V10.1818H12.3636V10.7273H11.8182Z" fill="#F0E9CF" fill-opacity="0.48"/>
</svg>