<svg xmlns="http://www.w3.org/2000/svg" width="20" height="20" viewBox="0 0 20 20" fill="none">
    <path d="M12.5 8.5V7.75H13.2143V7H13.9286V6.25H14.6429V5.5H15.3571V4.75H16.0714V4H16.7857V3.25H17.5V2.5H15.3571V3.25H14.6429V4H13.9286V4.75H13.2143V5.5H12.5V6.25H11.7857V7H10.3571V6.25H9.64286V5.5H8.92857V4H8.21429V3.25H7.5V2.5H2.5V3.25H3.21429V4H3.92857V4.75H4.64286V6.25H5.35714V7H6.07143V8.5H6.78571V9.25H7.5V10.75H8.21429V11.5H7.5V12.25H6.78571V13H6.07143V13.75H5.35714V14.5H4.64286V15.25H3.92857V16H3.21429V16.75H2.5V17.5H4.64286V16.75H5.35714V16H6.07143V15.25H6.78571V14.5H7.5V13.75H8.21429V13H9.64286V13.75H10.3571V14.5H11.0714V16H11.7857V16.75H12.5V17.5H17.5V16.75H16.7857V16H16.0714V15.25H15.3571V13.75H14.6429V13H13.9286V11.5H13.2143V10.75H12.5V9.25H11.7857V8.5H12.5ZM12.5 11.5V12.25H13.2143V13.75H13.9286V14.5H14.6429V16H12.5V14.5H11.7857V13.75H11.0714V13H10.3571V11.5H9.64286V10.75H8.92857V10H8.21429V8.5H7.5V7.75H6.78571V6.25H6.07143V5.5H5.35714V4H7.5V4.75H8.21429V6.25H8.92857V7H9.64286V8.5H10.3571V9.25H11.0714V10H11.7857V11.5H12.5Z" fill="#F0E9CF" fill-opacity="0.48"/>
</svg>