<svg xmlns="http://www.w3.org/2000/svg" width="16" height="16" viewBox="0 0 16 16" fill="none">
    <path d="M10 6.8V6.2H10.5714V5.6H11.1429V5H11.7143V4.4H12.2857V3.8H12.8571V3.2H13.4286V2.6H14V2H12.2857V2.6H11.7143V3.2H11.1429V3.8H10.5714V4.4H10V5H9.42857V5.6H8.28571V5H7.71429V4.4H7.14286V3.2H6.57143V2.6H6V2H2V2.6H2.57143V3.2H3.14286V3.8H3.71429V5H4.28571V5.6H4.85714V6.8H5.42857V7.4H6V8.6H6.57143V9.2H6V9.8H5.42857V10.4H4.85714V11H4.28571V11.6H3.71429V12.2H3.14286V12.8H2.57143V13.4H2V14H3.71429V13.4H4.28571V12.8H4.85714V12.2H5.42857V11.6H6V11H6.57143V10.4H7.71429V11H8.28571V11.6H8.85714V12.8H9.42857V13.4H10V14H14V13.4H13.4286V12.8H12.8571V12.2H12.2857V11H11.7143V10.4H11.1429V9.2H10.5714V8.6H10V7.4H9.42857V6.8H10ZM10 9.2V9.8H10.5714V11H11.1429V11.6H11.7143V12.8H10V11.6H9.42857V11H8.85714V10.4H8.28571V9.2H7.71429V8.6H7.14286V8H6.57143V6.8H6V6.2H5.42857V5H4.85714V4.4H4.28571V3.2H6V3.8H6.57143V5H7.14286V5.6H7.71429V6.8H8.28571V7.4H8.85714V8H9.42857V9.2H10Z" fill="#F0E9CF" fill-opacity="0.48"/>
</svg>