<svg xmlns="http://www.w3.org/2000/svg" width="24" height="24" viewBox="0 0 24 24" fill="none">
    <path d="M15 10.2V9.3H15.8571V8.4H16.7143V7.5H17.5714V6.6H18.4286V5.7H19.2857V4.8H20.1429V3.9H21V3H18.4286V3.9H17.5714V4.8H16.7143V5.7H15.8571V6.6H15V7.5H14.1429V8.4H12.4286V7.5H11.5714V6.6H10.7143V4.8H9.85714V3.9H9V3H3V3.9H3.85714V4.8H4.71429V5.7H5.57143V7.5H6.42857V8.4H7.28571V10.2H8.14286V11.1H9V12.9H9.85714V13.8H9V14.7H8.14286V15.6H7.28571V16.5H6.42857V17.4H5.57143V18.3H4.71429V19.2H3.85714V20.1H3V21H5.57143V20.1H6.42857V19.2H7.28571V18.3H8.14286V17.4H9V16.5H9.85714V15.6H11.5714V16.5H12.4286V17.4H13.2857V19.2H14.1429V20.1H15V21H21V20.1H20.1429V19.2H19.2857V18.3H18.4286V16.5H17.5714V15.6H16.7143V13.8H15.8571V12.9H15V11.1H14.1429V10.2H15ZM15 13.8V14.7H15.8571V16.5H16.7143V17.4H17.5714V19.2H15V17.4H14.1429V16.5H13.2857V15.6H12.4286V13.8H11.5714V12.9H10.7143V12H9.85714V10.2H9V9.3H8.14286V7.5H7.28571V6.6H6.42857V4.8H9V5.7H9.85714V7.5H10.7143V8.4H11.5714V10.2H12.4286V11.1H13.2857V12H14.1429V13.8H15Z" fill="#F0E9CF"/>
</svg>